<svg width="65" height="69" viewBox="0 0 65 69" fill="none" xmlns="http://www.w3.org/2000/svg">
<path d="M18.7504 19.789C18.7504 12.3124 24.8129 6.25 32.2934 6.25C39.7739 6.25 45.8364 12.3125 45.8364 19.789C45.8364 27.2695 39.7739 33.332 32.2934 33.332C24.8129 33.332 18.7504 27.2695 18.7504 19.789ZM44.2034 35.598C48.9886 31.9886 52.0862 26.2503 52.0862 19.789C52.0862 8.859 43.2229 0 32.2932 0C21.3635 0 12.5002 8.8594 12.5002 19.789C12.5002 26.2499 15.5979 31.988 20.383 35.598C8.445 40.3402 0 51.996 0 65.625C0 67.3477 1.4023 68.75 3.125 68.75C4.8516 68.75 6.25 67.3477 6.25 65.625C6.25 51.242 17.91 39.582 32.293 39.582C46.676 39.582 58.336 51.242 58.336 65.625C58.336 67.3477 59.7344 68.75 61.461 68.75C63.1837 68.75 64.586 67.3477 64.586 65.625C64.586 51.996 56.1411 40.34 44.2034 35.598Z" fill="black"/>
<path d="M18.7504 19.789C18.7504 12.3124 24.8129 6.25 32.2934 6.25C39.7739 6.25 45.8364 12.3125 45.8364 19.789C45.8364 27.2695 39.7739 33.332 32.2934 33.332C24.8129 33.332 18.7504 27.2695 18.7504 19.789ZM44.2034 35.598C48.9886 31.9886 52.0862 26.2503 52.0862 19.789C52.0862 8.859 43.2229 0 32.2932 0C21.3635 0 12.5002 8.8594 12.5002 19.789C12.5002 26.2499 15.5979 31.988 20.383 35.598C8.445 40.3402 0 51.996 0 65.625C0 67.3477 1.4023 68.75 3.125 68.75C4.8516 68.75 6.25 67.3477 6.25 65.625C6.25 51.242 17.91 39.582 32.293 39.582C46.676 39.582 58.336 51.242 58.336 65.625C58.336 67.3477 59.7344 68.75 61.461 68.75C63.1837 68.75 64.586 67.3477 64.586 65.625C64.586 51.996 56.1411 40.34 44.2034 35.598Z" stroke="black"/>
</svg>
